SRRun01_grf
version=1
nRows=27
nColumns=19
inDegrees=no
endheader
time	ground_force_r_vx	ground_force_r_vy	ground_force_r_vz	ground_force_r_px	ground_force_r_py	ground_force_r_pz	ground_force_r_mx	ground_force_r_my	ground_force_r_mz	ground_force_l_vx	ground_force_l_vy	ground_force_l_vz	ground_force_l_px	ground_force_l_py	ground_force_l_pz	ground_force_l_mx	ground_force_l_my	ground_force_l_mz
    144.99800000	      0.00000000	      0.00000000	      0.00000000	      0.00000000	      0.00000000	      0.00000000	      0.00000000	      0.00000000	      0.00000000	     -7.82076795	    298.54938373	    -71.39444638	      0.78098548	      0.00000000	     -0.38129113	      0.00000707	     -1.55759642	      0.00001112
    144.99900000	      0.00000000	      0.00000000	      0.00000000	      0.00000000	      0.00000000	      0.00000000	      0.00000000	      0.00000000	      0.00000000	     -9.64699728	    286.95194525	    -73.22077326	      0.78009824	      0.00000000	     -0.37665450	      0.00000698	     -3.38258081	      0.00001130
    145.00000000	      0.00000000	      0.00000000	      0.00000000	      0.00000000	      0.00000000	      0.00000000	      0.00000000	      0.00000000	      0.00000000	    -10.94140063	    275.69957172	    -74.99105745	      0.77925420	      0.00000000	     -0.37237146	      0.00000681	     -5.16076617	      0.00001146
    145.00100000	      0.00000000	      0.00000000	      0.00000000	      0.00000000	      0.00000000	      0.00000000	      0.00000000	      0.00000000	      0.00000000	    -11.61280151	    264.83343267	    -76.34041556	      0.77848908	      0.00000000	     -0.36859232	      0.00000656	     -6.79587869	      0.00001156
    145.00200000	      0.00000000	      0.00000000	      0.00000000	      0.00000000	      0.00000000	      0.00000000	      0.00000000	      0.00000000	      0.00000000	    -11.61170522	    254.37937486	    -76.96153244	      0.77783300	      0.00000000	     -0.36537520	      0.00000624	     -8.19342098	      0.00001157
    145.00300000	      0.00000000	      0.00000000	      0.00000000	      0.00000000	      0.00000000	      0.00000000	      0.00000000	      0.00000000	      0.00000000	    -10.93524843	    244.34830284	    -76.63643832	      0.77730982	      0.00000000	     -0.36268597	      0.00000585	     -9.26671790	      0.00001150
    145.00400000	      0.00000000	      0.00000000	      0.00000000	      0.00000000	      0.00000000	      0.00000000	      0.00000000	      0.00000000	      0.00000000	     -9.62883793	    234.73853083	    -75.25819817	      0.77693737	      0.00000000	     -0.36041474	      0.00000541	     -9.94302079	      0.00001132
    145.00500000	      0.00000000	      0.00000000	      0.00000000	      0.00000000	      0.00000000	      0.00000000	      0.00000000	      0.00000000	      0.00000000	     -7.78413426	    225.53962812	    -72.84026878	      0.77672821	      0.00000000	     -0.35840668	      0.00000495	    -10.16906804	      0.00001105
    145.00600000	      0.00000000	      0.00000000	      0.00000000	      0.00000000	      0.00000000	      0.00000000	      0.00000000	      0.00000000	      0.00000000	     -5.53340224	    216.73689757	    -69.51255671	      0.77669059	      0.00000000	     -0.35650078	      0.00000449	     -9.91560760	      0.00001068
    145.00700000	      0.00000000	      0.00000000	      0.00000000	      0.00000000	      0.00000000	      0.00000000	      0.00000000	      0.00000000	      0.00000000	     -3.04060064	    208.31536340	    -65.50464432	      0.77682869	      0.00000000	     -0.35456801	      0.00000403	     -9.18055159	      0.00001025
    145.00800000	      0.00000000	      0.00000000	      0.00000000	      0.00000000	      0.00000000	      0.00000000	      0.00000000	      0.00000000	      0.00000000	     -0.48985369	    200.26215953	    -61.11810505	      0.77714191	      0.00000000	     -0.35254080	      0.00000361	     -7.99057054	      0.00000976
    145.00900000	      0.00000000	      0.00000000	      0.00000000	      0.00000000	      0.00000000	      0.00000000	      0.00000000	      0.00000000	      0.00000000	      1.92788276	    192.56654541	    -56.69111805	      0.77762293	      0.00000000	     -0.35042812	      0.00000322	     -6.40099222	      0.00000924
    145.01000000	      0.00000000	      0.00000000	      0.00000000	      0.00000000	      0.00000000	      0.00000000	      0.00000000	      0.00000000	      0.00000000	      4.02903781	    185.21740756	    -52.55950208	      0.77825524	      0.00000000	     -0.34831413	      0.00000289	     -4.49385896	      0.00000870
    145.01100000	      0.00000000	      0.00000000	      0.00000000	      0.00000000	      0.00000000	      0.00000000	      0.00000000	      0.00000000	      0.00000000	      5.65149889	    178.19889403	    -49.01867066	      0.77901106	      0.00000000	     -0.34634224	      0.00000261	     -2.37399859	      0.00000818
    145.01200000	      0.00000000	      0.00000000	      0.00000000	      0.00000000	      0.00000000	      0.00000000	      0.00000000	      0.00000000	      0.00000000	      6.66740478	    171.48547712	    -46.29084255	      0.77985079	      0.00000000	     -0.34468906	      0.00000238	     -0.16308767	      0.00000769
    145.01300000	      0.00000000	      0.00000000	      0.00000000	      0.00000000	      0.00000000	      0.00000000	      0.00000000	      0.00000000	      0.00000000	      6.99345469	    165.03795667	    -44.50116711	      0.78072429	      0.00000000	     -0.34353437	      0.00000221	      2.00802971	      0.00000723
    145.01400000	      0.00000000	      0.00000000	      0.00000000	      0.00000000	      0.00000000	      0.00000000	      0.00000000	      0.00000000	      0.00000000	      6.59761030	    158.80165270	    -43.66530919	      0.78157385	      0.00000000	     -0.34303279	      0.00000208	      4.00816904	      0.00000682
    145.01500000	      0.00000000	      0.00000000	      0.00000000	      0.00000000	      0.00000000	      0.00000000	      0.00000000	      0.00000000	      0.00000000	      5.50137416	    152.70751619	    -43.68962238	      0.78233812	      0.00000000	     -0.34329244	      0.00000198	      5.71497583	      0.00000646
    145.01600000	      0.00000000	      0.00000000	      0.00000000	      0.00000000	      0.00000000	      0.00000000	      0.00000000	      0.00000000	      0.00000000	      3.77732827	    146.67635196	    -44.38355059	      0.78295679	      0.00000000	     -0.34436475	      0.00000190	      7.02362801	      0.00000614
    145.01700000	      0.00000000	      0.00000000	      0.00000000	      0.00000000	      0.00000000	      0.00000000	      0.00000000	      0.00000000	      0.00000000	      1.54218364	    140.62586130	    -45.48257478	      0.78337567	      0.00000000	     -0.34624829	      0.00000183	      7.85436865	      0.00000586
    145.01800000	      0.00000000	      0.00000000	      0.00000000	      0.00000000	      0.00000000	      0.00000000	      0.00000000	      0.00000000	      0.00000000	     -1.05391752	    134.47974896	    -46.67898403	      0.78355271	      0.00000000	     -0.34890613	      0.00000175	      8.15828946	      0.00000561
    145.01900000	      0.00000000	      0.00000000	      0.00000000	      0.00000000	      0.00000000	      0.00000000	      0.00000000	      0.00000000	      0.00000000	     -3.84077294	    128.17773874	    -47.65700172	      0.78346425	      0.00000000	     -0.35229260	      0.00000168	      7.92087406	      0.00000538
    145.02000000	      0.00000000	      0.00000000	      0.00000000	      0.00000000	      0.00000000	      0.00000000	      0.00000000	      0.00000000	      0.00000000	     -6.64289430	    121.68510024	    -48.12833284	      0.78311048	      0.00000000	     -0.35638207	      0.00000159	      7.16290883	      0.00000516
    145.02100000	      0.00000000	      0.00000000	      0.00000000	      0.00000000	      0.00000000	      0.00000000	      0.00000000	      0.00000000	      0.00000000	     -9.29428716	    115.00026069	    -47.86406820	      0.78251839	      0.00000000	     -0.36119204	      0.00000149	      5.93854657	      0.00000493
    145.02200000	      0.00000000	      0.00000000	      0.00000000	      0.00000000	      0.00000000	      0.00000000	      0.00000000	      0.00000000	      0.00000000	    -11.65180205	    108.15924770	    -46.71918728	      0.78174124	      0.00000000	     -0.36679351	      0.00000138	      4.33058203	      0.00000470
    145.02300000	      0.00000000	      0.00000000	      0.00000000	      0.00000000	      0.00000000	      0.00000000	      0.00000000	      0.00000000	      0.00000000	    -13.60574779	    101.23605060	    -44.64672703	      0.78085416	      0.00000000	     -0.37330389	      0.00000127	      2.44331908	      0.00000445
    145.02400000	      0.00000000	      0.00000000	      0.00000000	      0.00000000	      0.00000000	      0.00000000	      0.00000000	      0.00000000	      0.00000000	    -15.08678448	     94.33849311	    -41.69998571	      0.77994652	      0.00000000	     -0.38086113	      0.00000115	      0.39368507	      0.00000419
